<svg width="67" height="67" viewBox="0 0 67 67" fill="none" xmlns="http://www.w3.org/2000/svg">
<path d="M7.80188e-06 33.4485C0.00871891 26.8142 1.97117 20.3319 5.63846 14.8238C9.30576 9.31575 14.5127 5.02999 20.5989 2.51008C26.685 -0.00982475 33.3763 -0.650344 39.824 0.669761C46.2717 1.98987 52.1853 5.21112 56.8149 9.92499C61.4445 14.6389 64.5816 20.633 65.8281 27.1471C67.0746 33.6613 66.3745 40.402 63.8166 46.5143C61.2587 52.6267 56.9582 57.8354 51.4605 61.4798C45.9628 65.1241 39.5156 67.04 32.9366 66.9845C24.1701 66.9048 15.7899 63.3357 9.62096 57.0545C3.45201 50.7732 -0.00599487 42.2887 7.80188e-06 33.4485ZM41.556 54.5802L41.6345 54.645C42.0626 54.1557 42.505 53.6809 42.9189 53.206C42.9794 53.0971 43.0783 53.0151 43.196 52.9765C43.3136 52.9378 43.4414 52.9453 43.5539 52.9973C45.8372 53.7168 48.1277 54.386 50.411 55.0839C50.5213 55.1342 50.6443 55.1487 50.7632 55.1255C50.882 55.1023 50.9908 55.0425 51.0745 54.9544C51.9665 54.0766 52.9369 53.2636 53.7574 52.321C59.7083 45.5289 62.0272 37.6216 60.5716 28.6782C59.6576 22.7563 56.7771 17.3226 52.4017 13.2664C45.1023 6.4024 36.4686 3.91293 26.7645 6.22972C19.9206 7.83779 13.9413 12.0146 10.0429 17.9103C6.1446 23.8061 4.62011 30.978 5.77961 37.9669C6.82975 44.7296 10.3371 50.8565 15.6192 55.1558C15.7027 55.242 15.8097 55.301 15.9267 55.3254C16.0437 55.3497 16.1652 55.3383 16.2756 55.2926C18.3806 54.6306 20.4855 53.9543 22.6118 53.3499C22.8932 53.3034 23.1524 53.1672 23.3514 52.9613C23.5504 52.7555 23.6788 52.4907 23.7178 52.2059C24.1887 50.1913 24.8665 48.227 24.731 46.1189C24.7293 45.8371 24.6252 45.5658 24.4384 45.3562C23.9314 44.8261 23.4795 44.2451 23.0898 43.6222C22.4643 42.3646 22.1858 40.9605 22.2836 39.557C22.3221 37.5235 21.8768 35.5102 20.9849 33.6859C20.5327 32.8242 20.3021 31.8619 20.3142 30.8871C20.3142 30.5345 20.1572 30.4769 19.8861 30.4482C19.3724 30.3978 18.8515 30.3546 18.3449 30.2683C17.799 30.1966 17.3037 29.9092 16.9678 29.4694C16.632 29.0295 16.4831 28.4732 16.5539 27.9227C16.5967 27.4982 16.6538 27.0809 16.7038 26.6564C16.7537 26.2319 16.9963 26.2031 17.296 26.1743C17.4123 26.1638 17.5293 26.1638 17.6456 26.1743C17.5386 20.1305 20.2714 15.7056 25.1805 12.5038C25.1071 12.3089 25.0213 12.1191 24.9236 11.9354C24.8831 11.8853 24.8546 11.8265 24.8404 11.7634C24.8262 11.7004 24.8268 11.6349 24.842 11.5721C24.8572 11.5093 24.8867 11.451 24.9281 11.4016C24.9695 11.3523 25.0217 11.3133 25.0806 11.2878C25.6204 10.8961 26.188 10.545 26.7788 10.2373C29.7009 8.85434 32.9737 8.40978 36.1546 8.96383C38.0807 9.24636 39.9275 9.92999 41.5775 10.9712C42.3481 11.4965 42.3409 11.5037 41.9485 12.3599C41.9485 12.3599 41.9485 12.439 41.9057 12.5182C46.829 15.684 49.5405 20.1233 49.4263 26.1383C50.2254 26.0952 50.3396 26.1959 50.411 26.9658C50.4238 27.2409 50.4548 27.515 50.5037 27.786C50.5511 28.0667 50.5413 28.3542 50.4747 28.6309C50.4082 28.9076 50.2864 29.1678 50.1167 29.3954C49.9471 29.623 49.7332 29.8134 49.4881 29.9548C49.243 30.0962 48.9719 30.1857 48.6913 30.2179C48.1847 30.2971 47.6639 30.333 47.1501 30.3978C46.9159 30.4088 46.6947 30.5094 46.5316 30.6792C46.3685 30.849 46.2758 31.0752 46.2724 31.3116C46.2111 31.9209 46.067 32.5189 45.8443 33.0887C44.8263 35.1254 44.3029 37.377 44.3174 39.6578C44.3174 41.989 43.7394 44.0755 41.8628 45.6224C41.7748 45.6861 41.6976 45.7639 41.6345 45.8527C41.5618 45.946 41.5172 46.0584 41.5061 46.1765C41.4964 47.1389 41.556 48.1008 41.6845 49.0545C41.9559 50.2552 42.2869 51.4415 42.6763 52.6088C42.73 52.7405 42.7438 52.8854 42.7159 53.025C42.6879 53.1646 42.6195 53.2927 42.5193 53.3931C42.1982 53.8104 41.8843 54.1989 41.556 54.5802ZM51.5455 55.4005C52.3232 55.6307 53.0368 55.8538 53.7574 56.0408C53.9435 56.0696 54.1333 56.023 54.2854 55.9113C54.7506 55.4914 55.1936 55.0471 55.6126 54.5802C62.5909 46.7521 65.2881 37.6288 63.2331 27.3111C61.278 17.4971 55.634 10.3021 46.8219 5.72607C41.1893 2.80759 34.7735 1.79832 28.527 2.84807C23.9109 3.5632 19.5177 5.33149 15.6821 8.01816C11.8465 10.7048 8.66969 14.239 6.39387 18.3513C4.11805 22.4636 2.80325 27.0455 2.54965 31.7478C2.29605 36.4502 3.11035 41.1488 4.93051 45.4857C6.61008 49.5019 9.12058 53.1103 12.2941 56.0696C12.3605 56.1398 12.4401 56.1957 12.5284 56.234C12.6167 56.2723 12.7118 56.2923 12.8079 56.2927C13.5714 56.1056 14.3206 55.861 15.1411 55.6163C8.62659 49.9179 5.03039 42.8596 4.8092 34.204C4.63875 30.0996 5.37338 26.0082 6.96011 22.2247C8.54684 18.4411 10.9462 15.0596 13.9852 12.3239C19.3031 7.37621 26.2959 4.66626 33.5311 4.7492C40.7663 4.83213 47.6962 7.70168 52.9012 12.77C55.6062 15.3204 57.7713 18.3965 59.2661 21.813C60.7609 25.2296 61.5546 28.9158 61.5991 32.6498C61.8203 41.8019 58.3454 49.3207 51.5669 55.4005H51.5455ZM34.6633 36.2329C34.3993 35.5134 34.171 34.7364 33.8428 34.0241C33.8028 33.9063 33.7286 33.8035 33.6298 33.729C33.5311 33.6544 33.4123 33.6116 33.289 33.6062C33.1657 33.6007 33.0437 33.6329 32.9388 33.6985C32.8339 33.764 32.7511 33.8599 32.7011 33.9737C32.4726 34.3113 32.3103 34.6898 32.223 35.0889C32.0161 36.1466 31.8592 37.2474 31.7093 38.2763C31.6899 38.3902 31.6929 38.5068 31.7183 38.6195C31.7437 38.7322 31.7909 38.8387 31.8572 38.933C31.9235 39.0273 32.0075 39.1074 32.1046 39.1688C32.2017 39.2302 32.3098 39.2717 32.4228 39.2908C32.7514 39.3744 33.0904 39.4084 33.4289 39.3916C33.7525 39.392 34.0704 39.305 34.3494 39.1397C34.5634 38.9743 34.6491 38.6289 34.7918 38.3555C35.0558 38.7368 35.2627 39.3268 35.9691 39.1685C36.4257 39.0678 36.3473 38.6505 36.3972 38.2691C36.5429 38.4158 36.6438 38.6016 36.6881 38.8043C36.7323 39.007 36.718 39.2183 36.6469 39.4131C36.581 39.5812 36.4641 39.7239 36.3129 39.8208C36.1616 39.9177 35.9838 39.9639 35.805 39.9528C35.5766 39.9528 35.3483 39.9528 35.0914 39.9528C34.8772 39.9358 34.6616 39.9603 34.4564 40.0247C34.0308 40.2062 33.5735 40.2997 33.1114 40.2997C32.6494 40.2997 32.192 40.2062 31.7664 40.0247C31.4595 39.9174 31.1344 39.8734 30.8103 39.8952C29.8166 40.0158 28.8919 40.4693 28.1845 41.1831C28.0204 41.3342 27.8634 41.4925 27.635 41.7156C27.7998 41.0055 28.1328 40.3463 28.6055 39.7945C29.1478 39.111 29.7185 38.449 30.2608 37.7583C30.403 37.5931 30.4969 37.3913 30.532 37.1755C30.532 36.5136 30.532 35.8444 30.532 35.1465C29.3773 35.5996 28.1242 35.7361 26.9001 35.5422C27.8086 35.3825 28.6598 34.9856 29.3689 34.391H28.9693C28.2809 34.4437 27.5903 34.4605 26.9001 34.4414C25.9912 34.3257 25.1394 33.9314 24.4599 33.3118C24.1886 33.0895 23.8854 32.91 23.5608 32.7793C23.1541 32.6354 22.9686 32.7793 22.9614 33.2254C22.9886 33.7786 23.2055 34.3051 23.575 34.7148C23.9109 35.1099 24.2253 35.523 24.5169 35.9523C25.133 37.0196 25.4945 38.2167 25.573 39.4491C25.687 40.4126 25.6192 41.3891 25.3732 42.3271C25.1377 41.4709 24.945 40.6363 24.6596 39.8305C24.396 39.0014 23.9004 38.2669 23.2326 37.7151C23.3039 38.8232 23.3325 39.8736 23.4609 40.9745C23.4841 41.6211 23.6386 42.2561 23.9147 42.8402C24.1909 43.4243 24.5828 43.9451 25.0663 44.3705C26.297 45.3667 27.406 46.5067 28.37 47.7666C28.4659 47.9153 28.5494 48.0717 28.6197 48.2342L28.848 48.0903L29.1263 45.4714L29.2262 45.8455C29.4902 46.7952 29.7471 47.745 30.0254 48.7235C30.0811 48.9085 30.1783 49.078 30.3095 49.219C30.4406 49.36 30.6022 49.4687 30.7817 49.5365C31.9124 50.0864 33.1904 50.2481 34.4207 49.997C35.7193 49.7092 36.5613 49.0904 36.8325 47.7018C36.9466 46.9823 37.1678 46.3276 37.3605 45.5433L37.653 48.1119H37.7815C37.9741 47.8889 38.1668 47.6586 38.3666 47.4428C39.1847 46.4932 40.0591 45.5946 40.9852 44.7519C42.0055 43.9809 42.6947 42.8457 42.9118 41.5788C43.1115 40.3053 43.1686 39.0102 43.297 37.6576C42.8235 38.0304 42.4444 38.5112 42.1911 39.0606C41.9498 39.5812 41.7424 40.1172 41.5703 40.6651C41.4062 41.2047 41.3134 41.7731 41.1779 42.3991C40.4643 39.9312 41.1779 36.384 42.8261 34.8443C43.0334 34.6392 43.1983 34.3946 43.3113 34.1248C43.446 33.8598 43.5307 33.572 43.561 33.2758C43.6039 32.7937 43.3969 32.621 42.9474 32.7721C42.6651 32.864 42.4033 33.0107 42.1768 33.2038C41.5651 33.7527 40.8321 34.1461 40.039 34.3514C39.2459 34.5566 38.4156 34.5678 37.6174 34.3838C37.0679 34.2975 36.5399 34.1248 35.9263 33.9809C36.6861 34.832 37.7197 35.385 38.8446 35.5422C38.2417 35.5961 37.6352 35.5961 37.0323 35.5422C36.4258 35.4775 35.8264 35.2976 35.1985 35.1681L34.6633 36.2329ZM25.4588 46.4067H25.3303C25.384 47.0147 25.384 47.6263 25.3303 48.2342C25.1163 49.4142 24.8095 50.5798 24.5169 51.7454C24.2244 52.911 24.1958 52.9326 25.0592 53.8032C26.7632 55.4302 28.8586 56.5809 31.1385 57.1417C31.7949 57.3287 32.4728 57.4439 33.2006 57.6022V51.1986C32.9152 51.1986 32.644 51.1986 32.3729 51.1338C31.0019 51.1068 29.6948 50.5445 28.7268 49.5653C28.2202 49.0113 27.6565 48.522 27.1142 47.9968L25.4588 46.4067ZM19.4437 28.6278L19.4009 28.6782C19.4955 28.8046 19.6058 28.9183 19.7291 29.0163C20.354 29.4684 21.0235 29.8542 21.727 30.1675C22.5857 30.4558 23.478 30.63 24.3813 30.6856C26.8002 30.8655 29.2262 31.0166 31.6522 31.0813C35.5075 31.1715 39.3648 31.0345 43.2043 30.6712C44.1776 30.6096 45.131 30.3656 46.0156 29.9517C46.6928 29.6543 47.2879 29.195 47.7495 28.6134C47.1828 28.8638 46.5955 29.0636 45.9942 29.2106C44.7407 29.4274 43.4755 29.5692 42.2054 29.6351C39.2371 29.7646 36.2616 29.8869 33.2933 29.8797C30.2109 29.8797 27.1356 29.743 24.0174 29.6135C23.0049 29.5497 21.9984 29.4102 21.0064 29.1962C20.4721 29.0464 19.9498 28.8564 19.4437 28.6278ZM24.096 13.9284L29.7114 24.5338C28.4578 20.5648 27.0051 16.6624 25.3589 12.8419L24.096 13.9284ZM41.7344 12.8204C40.0845 16.6425 38.6434 20.5528 37.4176 24.5338C39.2014 21.0371 40.921 17.5043 43.0045 14.1658C43.028 14.1206 43.0448 14.0721 43.0545 14.0219L41.7344 12.8204Z" fill="white"/>
</svg>
